<svg width="156" height="68" viewBox="0 0 156 68" fill="none" xmlns="http://www.w3.org/2000/svg">
<g clip-path="url(#clip0_46_82)">
<rect width="156" height="68" fill="white"/>
<path d="M24.728 57V39.12H31.4C32.616 39.12 33.688 39.344 34.616 39.792C35.56 40.224 36.296 40.864 36.824 41.712C37.352 42.544 37.616 43.56 37.616 44.76C37.616 45.944 37.344 46.96 36.8 47.808C36.272 48.64 35.544 49.28 34.616 49.728C33.688 50.176 32.616 50.4 31.4 50.4H27.992V57H24.728ZM27.992 47.52H31.448C32.04 47.52 32.552 47.408 32.984 47.184C33.416 46.944 33.752 46.616 33.992 46.2C34.232 45.784 34.352 45.304 34.352 44.76C34.352 44.2 34.232 43.72 33.992 43.32C33.752 42.904 33.416 42.584 32.984 42.36C32.552 42.12 32.04 42 31.448 42H27.992V47.52ZM43.2131 57.288C42.3011 57.288 41.5091 57.136 40.8371 56.832C40.1651 56.528 39.6451 56.096 39.2771 55.536C38.9091 54.96 38.7251 54.296 38.7251 53.544C38.7251 52.824 38.8851 52.184 39.2051 51.624C39.5251 51.048 40.0211 50.568 40.6931 50.184C41.3651 49.8 42.2131 49.528 43.2371 49.368L47.5091 48.672V51.072L43.8371 51.696C43.2131 51.808 42.7491 52.008 42.4451 52.296C42.1411 52.584 41.9891 52.96 41.9891 53.424C41.9891 53.872 42.1571 54.232 42.4931 54.504C42.8451 54.76 43.2771 54.888 43.7891 54.888C44.4451 54.888 45.0211 54.752 45.5171 54.48C46.0291 54.192 46.4211 53.8 46.6931 53.304C46.9811 52.808 47.1251 52.264 47.1251 51.672V48.312C47.1251 47.752 46.9011 47.288 46.4531 46.92C46.0211 46.536 45.4451 46.344 44.7251 46.344C44.0531 46.344 43.4531 46.528 42.9251 46.896C42.4131 47.248 42.0371 47.72 41.7971 48.312L39.2291 47.064C39.4851 46.376 39.8851 45.784 40.4291 45.288C40.9891 44.776 41.6451 44.376 42.3971 44.088C43.1491 43.8 43.9651 43.656 44.8451 43.656C45.9171 43.656 46.8611 43.856 47.6771 44.256C48.4931 44.64 49.1251 45.184 49.5731 45.888C50.0371 46.576 50.2691 47.384 50.2691 48.312V57H47.2931V54.768L47.9651 54.72C47.6291 55.28 47.2291 55.752 46.7651 56.136C46.3011 56.504 45.7731 56.792 45.1811 57C44.5891 57.192 43.9331 57.288 43.2131 57.288ZM53.1749 57V38.832H56.3189V57H53.1749ZM65.4138 57.288C64.0698 57.288 62.8938 56.984 61.8858 56.376C60.8778 55.768 60.0938 54.944 59.5338 53.904C58.9738 52.864 58.6938 51.712 58.6938 50.448C58.6938 49.136 58.9738 47.976 59.5338 46.968C60.1098 45.944 60.8858 45.136 61.8618 44.544C62.8538 43.952 63.9578 43.656 65.1738 43.656C66.1978 43.656 67.0938 43.824 67.8618 44.16C68.6458 44.496 69.3098 44.96 69.8538 45.552C70.3978 46.144 70.8138 46.824 71.1018 47.592C71.3898 48.344 71.5338 49.16 71.5338 50.04C71.5338 50.264 71.5178 50.496 71.4858 50.736C71.4698 50.976 71.4298 51.184 71.3658 51.36H61.2858V48.96H69.5898L68.1018 50.088C68.2458 49.352 68.2058 48.696 67.9818 48.12C67.7738 47.544 67.4218 47.088 66.9258 46.752C66.4458 46.416 65.8618 46.248 65.1738 46.248C64.5178 46.248 63.9338 46.416 63.4218 46.752C62.9098 47.072 62.5178 47.552 62.2458 48.192C61.9898 48.816 61.8938 49.576 61.9578 50.472C61.8938 51.272 61.9978 51.984 62.2698 52.608C62.5578 53.216 62.9738 53.688 63.5178 54.024C64.0778 54.36 64.7178 54.528 65.4378 54.528C66.1578 54.528 66.7658 54.376 67.2618 54.072C67.7738 53.768 68.1738 53.36 68.4618 52.848L71.0058 54.096C70.7498 54.72 70.3498 55.272 69.8058 55.752C69.2618 56.232 68.6138 56.608 67.8618 56.88C67.1258 57.152 66.3098 57.288 65.4138 57.288ZM79.8691 57.144C78.3971 57.144 77.2531 56.744 76.4371 55.944C75.6371 55.128 75.2371 53.984 75.2371 52.512V46.752H72.9811V43.944H73.2211C73.8611 43.944 74.3571 43.776 74.7091 43.44C75.0611 43.104 75.2371 42.616 75.2371 41.976V40.968H78.3811V43.944H81.3811V46.752H78.3811V52.344C78.3811 52.776 78.4531 53.144 78.5971 53.448C78.7571 53.752 78.9971 53.984 79.3171 54.144C79.6531 54.304 80.0771 54.384 80.5891 54.384C80.7011 54.384 80.8291 54.376 80.9731 54.36C81.1331 54.344 81.2851 54.328 81.4291 54.312V57C81.2051 57.032 80.9491 57.064 80.6611 57.096C80.3731 57.128 80.1091 57.144 79.8691 57.144ZM89.7832 57.144C88.3112 57.144 87.1672 56.744 86.3512 55.944C85.5512 55.128 85.1512 53.984 85.1512 52.512V46.752H82.8952V43.944H83.1352C83.7752 43.944 84.2712 43.776 84.6232 43.44C84.9752 43.104 85.1512 42.616 85.1512 41.976V40.968H88.2952V43.944H91.2952V46.752H88.2952V52.344C88.2952 52.776 88.3672 53.144 88.5112 53.448C88.6712 53.752 88.9112 53.984 89.2312 54.144C89.5672 54.304 89.9912 54.384 90.5032 54.384C90.6152 54.384 90.7432 54.376 90.8872 54.36C91.0472 54.344 91.1992 54.328 91.3432 54.312V57C91.1192 57.032 90.8632 57.064 90.5752 57.096C90.2872 57.128 90.0232 57.144 89.7832 57.144ZM99.8201 57.288C98.4761 57.288 97.3001 56.984 96.2921 56.376C95.2841 55.768 94.5001 54.944 93.9401 53.904C93.3801 52.864 93.1001 51.712 93.1001 50.448C93.1001 49.136 93.3801 47.976 93.9401 46.968C94.5161 45.944 95.2921 45.136 96.2681 44.544C97.2601 43.952 98.3641 43.656 99.5801 43.656C100.604 43.656 101.5 43.824 102.268 44.16C103.052 44.496 103.716 44.96 104.26 45.552C104.804 46.144 105.22 46.824 105.508 47.592C105.796 48.344 105.94 49.16 105.94 50.04C105.94 50.264 105.924 50.496 105.892 50.736C105.876 50.976 105.836 51.184 105.772 51.36H95.6921V48.96H103.996L102.508 50.088C102.652 49.352 102.612 48.696 102.388 48.12C102.18 47.544 101.828 47.088 101.332 46.752C100.852 46.416 100.268 46.248 99.5801 46.248C98.9241 46.248 98.3401 46.416 97.8281 46.752C97.3161 47.072 96.9241 47.552 96.6521 48.192C96.3961 48.816 96.3001 49.576 96.3641 50.472C96.3001 51.272 96.4041 51.984 96.6761 52.608C96.9641 53.216 97.3801 53.688 97.9241 54.024C98.4841 54.36 99.1241 54.528 99.8441 54.528C100.564 54.528 101.172 54.376 101.668 54.072C102.18 53.768 102.58 53.36 102.868 52.848L105.412 54.096C105.156 54.72 104.756 55.272 104.212 55.752C103.668 56.232 103.02 56.608 102.268 56.88C101.532 57.152 100.716 57.288 99.8201 57.288Z" fill="#3D0066"/>
<path d="M111.389 57L117.557 39.12H121.781L127.949 57H124.397L123.125 53.16H116.213L114.917 57H111.389ZM117.149 50.28H122.189L119.213 41.376H120.125L117.149 50.28ZM129.675 57V43.944H132.819V57H129.675ZM129.675 42.48V39.12H132.819V42.48H129.675Z" fill="#FFD500"/>
<path d="M124.998 44.0629L126.061 43.1328L122.666 38.9211L121.097 40.2938L124.998 44.0629Z" fill="#FFB6B6"/>
<path d="M123.959 43.6972L125.56 42.1182L126.252 42.787L128.926 42.3994C129.059 42.3803 129.194 42.4005 129.313 42.457C129.431 42.5136 129.527 42.6036 129.587 42.7139C129.646 42.8242 129.665 42.949 129.642 43.0701C129.618 43.1912 129.553 43.3022 129.457 43.387L127.436 45.156L126.403 44.7993L126.951 45.5799L126.189 46.2469L123.959 43.6972Z" fill="#2F2E41"/>
<path d="M124.816 40.8889L123.355 42.7222C122.117 42.116 118.169 39.7105 115.144 38.4504C113.189 37.634 111.681 37.0131 111.681 37.0131C111.681 37.0131 111.478 37.2783 111.153 37.6951C109.967 39.2229 107.164 42.7782 106.897 42.6462C106.558 42.4788 106.174 42.7782 106.222 43.3918C106.256 43.8391 105.434 44.1654 104.984 44.3109C104.816 44.3646 104.7 44.394 104.7 44.394C104.623 44.4392 104.546 44.4844 104.47 44.5272C102.01 45.9095 99.128 45.5196 97.1479 44.0383C96.4386 43.5121 95.8602 42.8523 95.4515 42.1032C95.0428 41.3542 94.8133 40.5333 94.7784 39.6958L94.6017 35.907L100.582 35.6626L101.646 37.5216L103.535 36.1062L107.669 33.008L109.179 31.8762C109.179 31.8762 109.139 31.8713 109.187 31.7051C109.376 31.6108 109.574 31.5323 109.778 31.4705C109.812 31.4595 109.847 31.4497 109.882 31.4411C111.828 30.9131 113.305 32.2869 113.305 32.2869C113.305 32.2869 122.335 37.903 122.69 37.9556C123.045 38.0094 123.249 38.5335 123.292 38.6582C123.333 38.7755 123.898 39.4381 124.152 39.4222C124.944 39.3746 124.816 40.8889 124.816 40.8889Z" fill="#2F2E41"/>
<path d="M106.889 29.5421C106.722 29.5929 106.57 29.677 106.443 29.7883C106.315 29.8996 106.216 30.0353 106.153 30.1858L100.669 30.1581L97.7521 26.4473L95.5839 27.3301L99.1129 33.2108L106.838 31.6258L106.833 31.6109C107.012 31.6749 107.205 31.6983 107.396 31.6791C107.587 31.66 107.77 31.5989 107.93 31.5011C108.09 31.4032 108.221 31.2713 108.314 31.1167C108.407 30.9621 108.458 30.7893 108.462 30.6128C108.467 30.4363 108.426 30.2614 108.341 30.1027C108.257 29.9441 108.132 29.8065 107.978 29.7015C107.824 29.5965 107.644 29.5272 107.455 29.4994C107.265 29.4717 107.071 29.4863 106.889 29.5421Z" fill="#FFB6B6"/>
<path d="M96.7276 23.9187L96.6137 23.934C96.0189 24.0136 95.4816 24.3041 95.1169 24.7435C94.7522 25.1828 94.589 25.736 94.6622 26.2847C94.7503 26.9336 94.8016 27.5143 94.7244 27.6298C94.5346 27.9141 94.462 28.1523 94.8344 28.1879C95.2069 28.2235 94.4307 28.0139 95.6172 28.1963C96.8037 28.3788 96.5938 27.7989 97.5604 27.7607C98.527 27.7224 99.1792 27.9518 99.4836 27.4508C99.788 26.9499 100.637 26.9293 100.171 26.4371C99.7044 25.945 99.5782 26.3701 99.2004 25.3264C99.1967 25.3159 99.1929 25.3056 99.1891 25.2952C99.0186 24.8373 98.6789 24.4488 98.2292 24.1973C97.7795 23.9458 97.2481 23.8472 96.7276 23.9187Z" fill="#6C63FF"/>
<path d="M99.3818 24.3633C99.2675 24.296 99.1532 24.2313 99.0363 24.1689C98.9845 24.1042 98.9313 24.0406 98.8768 23.9783L99.3818 24.3633Z" fill="#F2F2F2"/>
<path d="M96.1233 18.8193C97.8931 20.0575 99.864 21.0429 100.235 22.4055C100.235 22.4055 100.013 20.2646 101.051 20.6704C102.795 21.3522 102.205 17.6441 101.716 17.0377C100.901 16.0271 98.1519 15.4529 98.1519 15.4529L96.2019 16.4374L96.1233 18.8193Z" fill="#2F2E41"/>
<path d="M99.2049 20.3218C100.893 20.3218 102.261 19.0633 102.261 17.5108C102.261 15.9583 100.893 14.6997 99.2049 14.6997C97.5169 14.6997 96.1484 15.9583 96.1484 17.5108C96.1484 19.0633 97.5169 20.3218 99.2049 20.3218Z" fill="#FFB6B6"/>
<path d="M98.1042 16.4353L97.9866 16.9104L100.043 17.3409C100.044 17.2448 100.068 17.1501 100.111 17.0627C100.155 16.9754 100.218 16.8972 100.295 16.8332C100.251 17.0194 100.256 17.2128 100.31 17.3969C101.419 17.9692 101.355 18.1719 102.252 18.026C102.373 18.0514 102.5 18.0314 102.606 17.9705C102.711 17.9095 102.786 17.8125 102.814 17.7008C103.174 16.2441 103.293 14.7553 101.716 14.3937C101.333 14.3056 100.935 14.2888 100.545 14.3441C100.154 14.3995 99.7801 14.5259 99.4437 14.7161C99.1072 14.9062 98.8154 15.1563 98.5854 15.4515C98.3554 15.7467 98.1918 16.0812 98.1042 16.4353Z" fill="#2F2E41"/>
<path d="M113.712 34.1091C113.705 34.1011 113.696 34.094 113.687 34.088C113.664 34.0636 113.636 34.0436 113.605 34.0291L113.382 33.9189L111.897 32.4028C111.811 32.3616 111.711 32.3528 111.618 32.3783L111.614 32.3794L110.978 32.5603L110.431 32.7164L109.667 32.9343L104.462 34.4165L101.041 35.3907C100.948 35.4176 100.871 35.4769 100.825 35.5557C100.78 35.6345 100.77 35.7266 100.798 35.8121C100.814 35.8592 100.84 35.9027 100.876 35.9398L100.985 36.0512L101.213 36.2852L101.742 37.2935L101.889 37.4442C101.936 37.4922 101.996 37.5269 102.064 37.5443C102.131 37.5617 102.203 37.5611 102.27 37.5425L113.541 34.66C113.599 34.6425 113.652 34.6121 113.695 34.5714C113.738 34.5307 113.769 34.4809 113.786 34.4265C113.803 34.3721 113.805 34.3147 113.792 34.2593C113.779 34.204 113.752 34.1524 113.712 34.1091Z" fill="#CCCCCC"/>
<path d="M113.043 19.1121L112.825 19.1446C112.765 19.1538 112.711 19.1843 112.676 19.2295L112.58 19.3532L111.712 21.3481C111.677 21.3937 111.663 21.4503 111.673 21.5055L111.774 22.0739L111.39 32.2188C111.4 32.2713 111.431 32.3185 111.476 32.3513L113.16 34.4232L113.2 34.4519L113.285 34.513C113.328 34.5439 113.382 34.5597 113.437 34.5576L113.58 34.5513C113.613 34.5499 113.644 34.5421 113.673 34.5285C113.702 34.5149 113.728 34.4958 113.748 34.4724C113.769 34.4493 113.784 34.4224 113.792 34.3935C113.8 34.3646 113.802 34.3344 113.796 34.305L113.307 19.2857C113.298 19.2305 113.264 19.1812 113.215 19.1486C113.165 19.116 113.104 19.1028 113.044 19.1119L113.043 19.1121Z" fill="#CCCCCC"/>
<path d="M112.677 19.9004L111.909 22.0532L111.612 30.6517L112.808 31.6295L112.677 19.9004Z" fill="#6C63FF"/>
<path d="M97.417 21.0173L96.435 20.594L95.468 22.1414C95.468 22.1414 92.8711 25.5497 92.8334 28.0085C92.7958 30.4673 93.2566 31.1985 93.2566 31.1985C93.2566 31.1985 92.1369 31.9684 92.6968 32.439C93.2566 32.9096 94.4961 33.1127 93.5441 33.3167C92.5922 33.5207 92.8334 35.5861 93.8966 35.9528C94.9597 36.3194 100.669 36.3162 100.669 36.3162C100.618 36.1561 100.614 35.9863 100.658 35.8243C100.702 35.6624 100.793 35.5143 100.92 35.3954C101.363 34.9873 101.762 35.2801 101.363 34.6449C100.964 34.0096 100.3 34.3762 100.831 33.5207C101.363 32.6652 101.363 32.4095 101.363 32.4095C101.363 32.4095 101.078 26.3771 99.4456 24.3194L99.4804 24.2628C99.5346 23.5932 99.3663 22.9244 98.9978 22.3448C98.6294 21.7652 98.0781 21.3022 97.417 21.0173Z" fill="#FDC500"/>
<path d="M98.6072 18.3309C98.7078 17.9251 98.9052 17.5449 99.1849 17.2178C99.4647 16.8906 99.82 16.6247 100.225 16.4391C100.63 16.2535 101.075 16.1529 101.527 16.1446C101.98 16.1363 102.429 16.2205 102.842 16.391C102.699 16.0029 102.409 15.6747 102.026 15.4658L99.7114 14.5417C98.5698 14.3027 96.7628 13.6243 95.9382 14.274C95.1785 14.8707 95.5483 16.0389 94.8487 16.6932C94.0821 17.4102 94.0169 18.258 94.2344 18.7456C94.4859 19.3097 94.9891 20.0794 95.6171 20.2459C95.6497 20.0474 95.7574 19.8658 95.9212 19.733C95.8759 19.9222 95.872 20.1178 95.9096 20.3084L99.7114 23.0971C99.3563 22.8131 99.0538 22.0812 98.8455 21.2569C98.7221 20.769 97.9863 20.5978 98.5831 19.7697C99.1798 18.9416 98.5261 18.6582 98.6072 18.3309Z" fill="#2F2E41"/>
<path d="M106.09 33.2412C105.915 33.2411 105.741 33.2766 105.582 33.3452C105.423 33.4138 105.283 33.5139 105.171 33.6382L99.9771 32.019L98.4838 27.6509L96.1233 27.8588L97.4522 34.4634L105.326 35.2035L105.327 35.1881C105.475 35.3007 105.65 35.379 105.838 35.4163C106.025 35.4536 106.22 35.4488 106.405 35.4023C106.59 35.3558 106.761 35.269 106.902 35.1493C107.043 35.0295 107.15 34.8803 107.215 34.7142C107.28 34.5481 107.301 34.3701 107.276 34.1951C107.25 34.0201 107.179 33.8533 107.069 33.7089C106.958 33.5644 106.812 33.4465 106.642 33.3651C106.471 33.2837 106.282 33.2412 106.09 33.2412Z" fill="#FFB6B6"/>
<path d="M98.38 24.9541L98.2667 24.9356C97.6751 24.8383 97.0655 24.9579 96.5686 25.2688C96.0716 25.5798 95.7268 26.0573 95.6079 26.5991C95.4686 27.2404 95.3179 27.8062 95.205 27.8934C94.9273 28.108 94.7766 28.313 95.1177 28.4549C95.4588 28.5969 94.7944 28.1725 95.8575 28.6903C96.9206 29.208 96.9206 28.5969 97.8509 28.8413C98.7811 29.0858 99.3211 29.4929 99.782 29.106C100.243 28.7191 101.056 28.9462 100.782 28.3438C100.509 27.7414 100.243 28.108 100.243 27.0081C100.243 26.9971 100.243 26.9861 100.243 26.9752C100.238 26.4911 100.049 26.0239 99.7091 25.6546C99.3688 25.2854 98.8985 25.0375 98.38 24.9541Z" fill="#2F2E41"/>
<path d="M123.112 47.2578L124.277 46.4379L121.393 41.9155L119.674 43.1256L123.112 47.2578Z" fill="#FFB6B6"/>
<path d="M122.121 46.7916L123.897 45.3796L124.507 46.1129L127.212 45.9914C127.345 45.9854 127.478 46.0188 127.589 46.0868C127.701 46.1548 127.785 46.2537 127.831 46.3692C127.877 46.4847 127.882 46.6107 127.845 46.7288C127.807 46.8468 127.73 46.9509 127.624 47.0256L125.408 48.585L124.423 48.1285L124.877 48.9587L124.042 49.5467L122.121 46.7916Z" fill="#2F2E41"/>
<path d="M123.302 44.0841L121.634 45.7626C120.475 45.0379 116.83 42.2568 113.969 40.7056C112.121 39.701 110.694 38.9349 110.694 38.9349C110.694 38.9349 110.461 39.1786 110.09 39.5609C108.732 40.9628 105.531 44.2212 105.28 44.0636C104.963 43.8637 104.546 44.1235 104.522 44.7382C104.504 45.1864 103.649 45.4297 103.185 45.53C103.011 45.5668 102.893 45.5845 102.893 45.5845C102.811 45.6219 102.729 45.6593 102.648 45.6943C100.042 46.826 97.2213 46.154 95.4254 44.4859C94.7816 43.8928 94.2835 43.1797 93.9645 42.3946C93.6455 41.6096 93.513 40.7708 93.5761 39.9348L93.8422 36.1504L99.8163 36.4973L100.658 38.4505L102.7 37.2297L107.172 34.5571L108.805 33.5808C108.805 33.5808 108.766 33.572 108.833 33.4115C109.032 33.3364 109.238 33.2779 109.448 33.2365C109.484 33.229 109.519 33.2227 109.555 33.2176C111.552 32.8847 112.86 34.3962 112.86 34.3962C112.86 34.3962 121.183 40.8708 121.53 40.958C121.876 41.0465 122.018 41.5878 122.046 41.7159C122.073 41.8366 122.558 42.5512 122.812 42.5604C123.605 42.5911 123.302 44.0841 123.302 44.0841Z" fill="#2F2E41"/>
</g>
<defs>
<clipPath id="clip0_46_82">
<rect width="156" height="68" fill="white"/>
</clipPath>
</defs>
</svg>
